<svg xmlns="http://www.w3.org/2000/svg" viewBox="0 0 256 256" role="img" aria-labelledby="title">
  <title id="title">Storm Troops systems mark</title>
  <defs>
    <linearGradient id="armor" x1="65" y1="44" x2="177" y2="220" gradientUnits="userSpaceOnUse">
      <stop offset="0" stop-color="#ffffff"/>
      <stop offset=".48" stop-color="#dfe2e4"/>
      <stop offset="1" stop-color="#929aa2"/>
    </linearGradient>
    <linearGradient id="gold" x1="40" y1="31" x2="215" y2="226" gradientUnits="userSpaceOnUse">
      <stop offset="0" stop-color="#fff0a0"/>
      <stop offset=".28" stop-color="#e8ba36"/>
      <stop offset=".68" stop-color="#91600f"/>
      <stop offset="1" stop-color="#f2cf62"/>
    </linearGradient>
    <filter id="shadow" x="-25%" y="-25%" width="150%" height="150%">
      <feDropShadow dx="0" dy="3" stdDeviation="3" flood-color="#050609" flood-opacity=".5"/>
    </filter>
  </defs>

  <g opacity=".5" transform="translate(-31 18) scale(.78)">
    <path d="M128 31c-42 0-67 29-69 75l-12 33 19 49 35 16h54l35-16 19-49-12-33c-2-46-27-75-69-75Z" fill="#737b82" stroke="url(#gold)" stroke-width="7"/>
    <path d="m67 111 43-8 18 19 18-19 43 8-13 28-32-5-16 18-16-18-32 5Z" fill="#0a0c0f"/>
  </g>
  <g opacity=".5" transform="translate(88 18) scale(.78)">
    <path d="M128 31c-42 0-67 29-69 75l-12 33 19 49 35 16h54l35-16 19-49-12-33c-2-46-27-75-69-75Z" fill="#737b82" stroke="url(#gold)" stroke-width="7"/>
    <path d="m67 111 43-8 18 19 18-19 43 8-13 28-32-5-16 18-16-18-32 5Z" fill="#0a0c0f"/>
  </g>

  <g filter="url(#shadow)">
    <path d="M128 31c-42 0-67 29-69 75l-12 33 19 49 35 16h54l35-16 19-49-12-33c-2-46-27-75-69-75Z" fill="url(#armor)" stroke="url(#gold)" stroke-width="7" stroke-linejoin="round"/>
    <path d="M63 103c17-18 39-26 65-26s48 8 65 26l-7 15-40-12-18 19-18-19-40 12Z" fill="#111419" stroke="#5d646b" stroke-width="5" stroke-linejoin="round"/>
    <path d="m73 111 33-10 13 18-40 7Zm110 0-33-10-13 18 40 7Z" fill="#050608"/>
    <path d="M72 138 61 166l30 22 25-10h24l25 10 30-22-11-28-29 10-17-13h-20l-17 13Z" fill="#f4f5f5" stroke="#3b4148" stroke-width="5" stroke-linejoin="round"/>
    <path d="M104 151h48l7 21-31 16-31-16Z" fill="#16191d" stroke="#aa8530" stroke-width="4"/>
    <path d="M107 159h42M105 168h46M116 151v28M128 151v34M140 151v28" fill="none" stroke="#d8dde0" stroke-width="3"/>
    <path d="M86 135 70 158M170 135l16 23" stroke="#111419" stroke-width="7" stroke-linecap="round"/>
    <path d="M91 203h74l17 25H74Z" fill="#101318" stroke="url(#gold)" stroke-width="6" stroke-linejoin="round"/>
  </g>
</svg>
